<?xml version='1.0' encoding='UTF-8'?>
<svg width="41mm" height="41mm" version="1.1" viewBox="0 0 41 41" xmlns="http://www.w3.org/2000/svg"><path d="M2,2H3V3H2zM3,2H4V3H3zM4,2H5V3H4zM5,2H6V3H5zM6,2H7V3H6zM7,2H8V3H7zM8,2H9V3H8zM10,2H11V3H10zM13,2H14V3H13zM18,2H19V3H18zM19,2H20V3H19zM20,2H21V3H20zM21,2H22V3H21zM23,2H24V3H23zM24,2H25V3H24zM27,2H28V3H27zM28,2H29V3H28zM32,2H33V3H32zM33,2H34V3H33zM34,2H35V3H34zM35,2H36V3H35zM36,2H37V3H36zM37,2H38V3H37zM38,2H39V3H38zM2,3H3V4H2zM8,3H9V4H8zM10,3H11V4H10zM14,3H15V4H14zM15,3H16V4H15zM22,3H23V4H22zM24,3H25V4H24zM26,3H27V4H26zM27,3H28V4H27zM32,3H33V4H32zM38,3H39V4H38zM2,4H3V5H2zM4,4H5V5H4zM5,4H6V5H5zM6,4H7V5H6zM8,4H9V5H8zM10,4H11V5H10zM12,4H13V5H12zM13,4H14V5H13zM15,4H16V5H15zM18,4H19V5H18zM22,4H23V5H22zM23,4H24V5H23zM24,4H25V5H24zM27,4H28V5H27zM32,4H33V5H32zM34,4H35V5H34zM35,4H36V5H35zM36,4H37V5H36zM38,4H39V5H38zM2,5H3V6H2zM4,5H5V6H4zM5,5H6V6H5zM6,5H7V6H6zM8,5H9V6H8zM11,5H12V6H11zM12,5H13V6H12zM13,5H14V6H13zM15,5H16V6H15zM16,5H17V6H16zM18,5H19V6H18zM19,5H20V6H19zM21,5H22V6H21zM23,5H24V6H23zM26,5H27V6H26zM27,5H28V6H27zM30,5H31V6H30zM32,5H33V6H32zM34,5H35V6H34zM35,5H36V6H35zM36,5H37V6H36zM38,5H39V6H38zM2,6H3V7H2zM4,6H5V7H4zM5,6H6V7H5zM6,6H7V7H6zM8,6H9V7H8zM10,6H11V7H10zM12,6H13V7H12zM13,6H14V7H13zM14,6H15V7H14zM16,6H17V7H16zM18,6H19V7H18zM19,6H20V7H19zM20,6H21V7H20zM21,6H22V7H21zM23,6H24V7H23zM27,6H28V7H27zM28,6H29V7H28zM30,6H31V7H30zM32,6H33V7H32zM34,6H35V7H34zM35,6H36V7H35zM36,6H37V7H36zM38,6H39V7H38zM2,7H3V8H2zM8,7H9V8H8zM13,7H14V8H13zM14,7H15V8H14zM15,7H16V8H15zM16,7H17V8H16zM17,7H18V8H17zM19,7H20V8H19zM20,7H21V8H20zM25,7H26V8H25zM30,7H31V8H30zM32,7H33V8H32zM38,7H39V8H38zM2,8H3V9H2zM3,8H4V9H3zM4,8H5V9H4zM5,8H6V9H5zM6,8H7V9H6zM7,8H8V9H7zM8,8H9V9H8zM10,8H11V9H10zM12,8H13V9H12zM14,8H15V9H14zM16,8H17V9H16zM18,8H19V9H18zM20,8H21V9H20zM22,8H23V9H22zM24,8H25V9H24zM26,8H27V9H26zM28,8H29V9H28zM30,8H31V9H30zM32,8H33V9H32zM33,8H34V9H33zM34,8H35V9H34zM35,8H36V9H35zM36,8H37V9H36zM37,8H38V9H37zM38,8H39V9H38zM13,9H14V10H13zM14,9H15V10H14zM15,9H16V10H15zM17,9H18V10H17zM21,9H22V10H21zM22,9H23V10H22zM24,9H25V10H24zM27,9H28V10H27zM29,9H30V10H29zM30,9H31V10H30zM2,10H3V11H2zM5,10H6V11H5zM6,10H7V11H6zM7,10H8V11H7zM8,10H9V11H8zM9,10H10V11H9zM10,10H11V11H10zM11,10H12V11H11zM16,10H17V11H16zM17,10H18V11H17zM18,10H19V11H18zM20,10H21V11H20zM22,10H23V11H22zM24,10H25V11H24zM26,10H27V11H26zM28,10H29V11H28zM30,10H31V11H30zM31,10H32V11H31zM34,10H35V11H34zM36,10H37V11H36zM37,10H38V11H37zM38,10H39V11H38zM2,11H3V12H2zM3,11H4V12H3zM4,11H5V12H4zM5,11H6V12H5zM7,11H8V12H7zM9,11H10V12H9zM11,11H12V12H11zM22,11H23V12H22zM23,11H24V12H23zM24,11H25V12H24zM25,11H26V12H25zM28,11H29V12H28zM29,11H30V12H29zM33,11H34V12H33zM34,11H35V12H34zM35,11H36V12H35zM37,11H38V12H37zM2,12H3V13H2zM5,12H6V13H5zM7,12H8V13H7zM8,12H9V13H8zM9,12H10V13H9zM10,12H11V13H10zM12,12H13V13H12zM14,12H15V13H14zM15,12H16V13H15zM20,12H21V13H20zM23,12H24V13H23zM25,12H26V13H25zM29,12H30V13H29zM30,12H31V13H30zM32,12H33V13H32zM36,12H37V13H36zM38,12H39V13H38zM5,13H6V14H5zM6,13H7V14H6zM7,13H8V14H7zM9,13H10V14H9zM10,13H11V14H10zM14,13H15V14H14zM16,13H17V14H16zM17,13H18V14H17zM19,13H20V14H19zM20,13H21V14H20zM25,13H26V14H25zM26,13H27V14H26zM28,13H29V14H28zM31,13H32V14H31zM32,13H33V14H32zM35,13H36V14H35zM36,13H37V14H36zM37,13H38V14H37zM38,13H39V14H38zM2,14H3V15H2zM5,14H6V15H5zM6,14H7V15H6zM8,14H9V15H8zM9,14H10V15H9zM10,14H11V15H10zM11,14H12V15H11zM14,14H15V15H14zM15,14H16V15H15zM18,14H19V15H18zM20,14H21V15H20zM21,14H22V15H21zM22,14H23V15H22zM30,14H31V15H30zM32,14H33V15H32zM35,14H36V15H35zM38,14H39V15H38zM3,15H4V16H3zM6,15H7V16H6zM9,15H10V16H9zM10,15H11V16H10zM11,15H12V16H11zM14,15H15V16H14zM17,15H18V16H17zM18,15H19V16H18zM19,15H20V16H19zM20,15H21V16H20zM23,15H24V16H23zM25,15H26V16H25zM27,15H28V16H27zM29,15H30V16H29zM30,15H31V16H30zM31,15H32V16H31zM34,15H35V16H34zM35,15H36V16H35zM2,16H3V17H2zM6,16H7V17H6zM7,16H8V17H7zM8,16H9V17H8zM10,16H11V17H10zM12,16H13V17H12zM15,16H16V17H15zM16,16H17V17H16zM17,16H18V17H17zM19,16H20V17H19zM21,16H22V17H21zM26,16H27V17H26zM27,16H28V17H27zM28,16H29V17H28zM29,16H30V17H29zM32,16H33V17H32zM34,16H35V17H34zM35,16H36V17H35zM36,16H37V17H36zM37,16H38V17H37zM38,16H39V17H38zM2,17H3V18H2zM3,17H4V18H3zM4,17H5V18H4zM5,17H6V18H5zM9,17H10V18H9zM12,17H13V18H12zM13,17H14V18H13zM14,17H15V18H14zM15,17H16V18H15zM16,17H17V18H16zM17,17H18V18H17zM19,17H20V18H19zM20,17H21V18H20zM30,17H31V18H30zM31,17H32V18H31zM32,17H33V18H32zM33,17H34V18H33zM35,17H36V18H35zM36,17H37V18H36zM37,17H38V18H37zM38,17H39V18H38zM3,18H4V19H3zM4,18H5V19H4zM6,18H7V19H6zM7,18H8V19H7zM8,18H9V19H8zM10,18H11V19H10zM13,18H14V19H13zM16,18H17V19H16zM18,18H19V19H18zM19,18H20V19H19zM22,18H23V19H22zM23,18H24V19H23zM25,18H26V19H25zM26,18H27V19H26zM27,18H28V19H27zM29,18H30V19H29zM32,18H33V19H32zM36,18H37V19H36zM2,19H3V20H2zM3,19H4V20H3zM6,19H7V20H6zM7,19H8V20H7zM9,19H10V20H9zM11,19H12V20H11zM12,19H13V20H12zM13,19H14V20H13zM16,19H17V20H16zM18,19H19V20H18zM20,19H21V20H20zM22,19H23V20H22zM23,19H24V20H23zM24,19H25V20H24zM29,19H30V20H29zM30,19H31V20H30zM33,19H34V20H33zM35,19H36V20H35zM2,20H3V21H2zM5,20H6V21H5zM7,20H8V21H7zM8,20H9V21H8zM9,20H10V21H9zM10,20H11V21H10zM12,20H13V21H12zM14,20H15V21H14zM17,20H18V21H17zM22,20H23V21H22zM25,20H26V21H25zM28,20H29V21H28zM29,20H30V21H29zM31,20H32V21H31zM32,20H33V21H32zM34,20H35V21H34zM35,20H36V21H35zM38,20H39V21H38zM4,21H5V22H4zM5,21H6V22H5zM6,21H7V22H6zM9,21H10V22H9zM11,21H12V22H11zM14,21H15V22H14zM20,21H21V22H20zM24,21H25V22H24zM27,21H28V22H27zM28,21H29V22H28zM30,21H31V22H30zM38,21H39V22H38zM4,22H5V23H4zM8,22H9V23H8zM12,22H13V23H12zM14,22H15V23H14zM15,22H16V23H15zM17,22H18V23H17zM18,22H19V23H18zM19,22H20V23H19zM22,22H23V23H22zM28,22H29V23H28zM29,22H30V23H29zM30,22H31V23H30zM31,22H32V23H31zM32,22H33V23H32zM33,22H34V23H33zM34,22H35V23H34zM35,22H36V23H35zM6,23H7V24H6zM7,23H8V24H7zM9,23H10V24H9zM10,23H11V24H10zM11,23H12V24H11zM13,23H14V24H13zM14,23H15V24H14zM15,23H16V24H15zM17,23H18V24H17zM20,23H21V24H20zM21,23H22V24H21zM23,23H24V24H23zM25,23H26V24H25zM27,23H28V24H27zM29,23H30V24H29zM34,23H35V24H34zM36,23H37V24H36zM2,24H3V25H2zM5,24H6V25H5zM6,24H7V25H6zM8,24H9V25H8zM9,24H10V25H9zM11,24H12V25H11zM12,24H13V25H12zM14,24H15V25H14zM17,24H18V25H17zM19,24H20V25H19zM20,24H21V25H20zM24,24H25V25H24zM25,24H26V25H25zM29,24H30V25H29zM32,24H33V25H32zM33,24H34V25H33zM35,24H36V25H35zM38,24H39V25H38zM3,25H4V26H3zM6,25H7V26H6zM10,25H11V26H10zM12,25H13V26H12zM13,25H14V26H13zM14,25H15V26H14zM15,25H16V26H15zM18,25H19V26H18zM19,25H20V26H19zM23,25H24V26H23zM24,25H25V26H24zM26,25H27V26H26zM31,25H32V26H31zM32,25H33V26H32zM33,25H34V26H33zM34,25H35V26H34zM35,25H36V26H35zM36,25H37V26H36zM38,25H39V26H38zM4,26H5V27H4zM5,26H6V27H5zM6,26H7V27H6zM7,26H8V27H7zM8,26H9V27H8zM9,26H10V27H9zM10,26H11V27H10zM13,26H14V27H13zM14,26H15V27H14zM15,26H16V27H15zM16,26H17V27H16zM17,26H18V27H17zM18,26H19V27H18zM19,26H20V27H19zM20,26H21V27H20zM23,26H24V27H23zM25,26H26V27H25zM30,26H31V27H30zM32,26H33V27H32zM33,26H34V27H33zM38,26H39V27H38zM2,27H3V28H2zM4,27H5V28H4zM5,27H6V28H5zM6,27H7V28H6zM10,27H11V28H10zM18,27H19V28H18zM19,27H20V28H19zM21,27H22V28H21zM22,27H23V28H22zM25,27H26V28H25zM27,27H28V28H27zM28,27H29V28H28zM29,27H30V28H29zM30,27H31V28H30zM31,27H32V28H31zM33,27H34V28H33zM34,27H35V28H34zM35,27H36V28H35zM36,27H37V28H36zM2,28H3V29H2zM3,28H4V29H3zM4,28H5V29H4zM5,28H6V29H5zM8,28H9V29H8zM9,28H10V29H9zM11,28H12V29H11zM13,28H14V29H13zM14,28H15V29H14zM15,28H16V29H15zM18,28H19V29H18zM20,28H21V29H20zM21,28H22V29H21zM22,28H23V29H22zM24,28H25V29H24zM29,28H30V29H29zM30,28H31V29H30zM34,28H35V29H34zM36,28H37V29H36zM37,28H38V29H37zM38,28H39V29H38zM2,29H3V30H2zM4,29H5V30H4zM6,29H7V30H6zM7,29H8V30H7zM10,29H11V30H10zM11,29H12V30H11zM12,29H13V30H12zM13,29H14V30H13zM14,29H15V30H14zM17,29H18V30H17zM22,29H23V30H22zM25,29H26V30H25zM28,29H29V30H28zM31,29H32V30H31zM32,29H33V30H32zM33,29H34V30H33zM35,29H36V30H35zM36,29H37V30H36zM37,29H38V30H37zM38,29H39V30H38zM2,30H3V31H2zM5,30H6V31H5zM7,30H8V31H7zM8,30H9V31H8zM9,30H10V31H9zM10,30H11V31H10zM11,30H12V31H11zM14,30H15V31H14zM18,30H19V31H18zM22,30H23V31H22zM25,30H26V31H25zM27,30H28V31H27zM30,30H31V31H30zM31,30H32V31H31zM32,30H33V31H32zM33,30H34V31H33zM34,30H35V31H34zM35,30H36V31H35zM36,30H37V31H36zM38,30H39V31H38zM10,31H11V32H10zM13,31H14V32H13zM14,31H15V32H14zM17,31H18V32H17zM20,31H21V32H20zM21,31H22V32H21zM22,31H23V32H22zM24,31H25V32H24zM30,31H31V32H30zM34,31H35V32H34zM36,31H37V32H36zM37,31H38V32H37zM2,32H3V33H2zM3,32H4V33H3zM4,32H5V33H4zM5,32H6V33H5zM6,32H7V33H6zM7,32H8V33H7zM8,32H9V33H8zM10,32H11V33H10zM11,32H12V33H11zM17,32H18V33H17zM21,32H22V33H21zM23,32H24V33H23zM24,32H25V33H24zM25,32H26V33H25zM26,32H27V33H26zM27,32H28V33H27zM30,32H31V33H30zM32,32H33V33H32zM34,32H35V33H34zM38,32H39V33H38zM2,33H3V34H2zM8,33H9V34H8zM10,33H11V34H10zM11,33H12V34H11zM12,33H13V34H12zM16,33H17V34H16zM17,33H18V34H17zM18,33H19V34H18zM19,33H20V34H19zM20,33H21V34H20zM24,33H25V34H24zM25,33H26V34H25zM26,33H27V34H26zM27,33H28V34H27zM28,33H29V34H28zM29,33H30V34H29zM30,33H31V34H30zM34,33H35V34H34zM37,33H38V34H37zM2,34H3V35H2zM4,34H5V35H4zM5,34H6V35H5zM6,34H7V35H6zM8,34H9V35H8zM10,34H11V35H10zM12,34H13V35H12zM15,34H16V35H15zM16,34H17V35H16zM21,34H22V35H21zM23,34H24V35H23zM24,34H25V35H24zM26,34H27V35H26zM29,34H30V35H29zM30,34H31V35H30zM31,34H32V35H31zM32,34H33V35H32zM33,34H34V35H33zM34,34H35V35H34zM2,35H3V36H2zM4,35H5V36H4zM5,35H6V36H5zM6,35H7V36H6zM8,35H9V36H8zM10,35H11V36H10zM15,35H16V36H15zM18,35H19V36H18zM19,35H20V36H19zM20,35H21V36H20zM23,35H24V36H23zM25,35H26V36H25zM27,35H28V36H27zM28,35H29V36H28zM29,35H30V36H29zM30,35H31V36H30zM31,35H32V36H31zM32,35H33V36H32zM35,35H36V36H35zM36,35H37V36H36zM38,35H39V36H38zM2,36H3V37H2zM4,36H5V37H4zM5,36H6V37H5zM6,36H7V37H6zM8,36H9V37H8zM11,36H12V37H11zM12,36H13V37H12zM17,36H18V37H17zM18,36H19V37H18zM21,36H22V37H21zM22,36H23V37H22zM24,36H25V37H24zM25,36H26V37H25zM27,36H28V37H27zM29,36H30V37H29zM31,36H32V37H31zM34,36H35V37H34zM36,36H37V37H36zM38,36H39V37H38zM2,37H3V38H2zM8,37H9V38H8zM12,37H13V38H12zM13,37H14V38H13zM14,37H15V38H14zM15,37H16V38H15zM16,37H17V38H16zM18,37H19V38H18zM19,37H20V38H19zM21,37H22V38H21zM22,37H23V38H22zM24,37H25V38H24zM25,37H26V38H25zM28,37H29V38H28zM32,37H33V38H32zM34,37H35V38H34zM35,37H36V38H35zM36,37H37V38H36zM37,37H38V38H37zM38,37H39V38H38zM2,38H3V39H2zM3,38H4V39H3zM4,38H5V39H4zM5,38H6V39H5zM6,38H7V39H6zM7,38H8V39H7zM8,38H9V39H8zM10,38H11V39H10zM13,38H14V39H13zM17,38H18V39H17zM18,38H19V39H18zM20,38H21V39H20zM22,38H23V39H22zM30,38H31V39H30zM31,38H32V39H31zM32,38H33V39H32zM33,38H34V39H33zM35,38H36V39H35zM38,38H39V39H38z" id="qr-path" fill="#000000" fill-opacity="1" fill-rule="nonzero" stroke="none" /></svg>